<svg id="visual" viewBox="0 0 900 600" width="900" height="600" xmlns="http://www.w3.org/2000/svg" xmlns:xlink="http://www.w3.org/1999/xlink" version="1.1"><rect x="0" y="0" width="900" height="600" fill="#ffffff"></rect><defs><linearGradient id="grad1_0" x1="33.3%" y1="0%" x2="100%" y2="100%"><stop offset="20%" stop-color="#ffffff" stop-opacity="1"></stop><stop offset="80%" stop-color="#ffffff" stop-opacity="1"></stop></linearGradient></defs><defs><linearGradient id="grad2_0" x1="0%" y1="0%" x2="66.7%" y2="100%"><stop offset="20%" stop-color="#ffffff" stop-opacity="1"></stop><stop offset="80%" stop-color="#ffffff" stop-opacity="1"></stop></linearGradient></defs><g transform="translate(900, 0)"><path d="M0 378.6C-47.8 373.9 -95.5 369.3 -144.9 349.8C-194.2 330.2 -245.2 295.8 -246.1 246.1C-247 196.3 -197.8 131.2 -211.6 87.6C-225.3 44.1 -301.9 22 -378.6 0L0 0Z" fill="#ece7de"></path></g><g transform="translate(0, 600)"><path d="M0 -378.6C48.9 -373.1 97.8 -367.6 144.9 -349.8C191.9 -331.9 237.2 -301.6 261.6 -261.6C286.1 -221.6 289.8 -171.9 305.8 -126.7C321.8 -81.4 350.2 -40.7 378.6 0L0 0Z" fill="#ece7de"></path></g></svg>