<svg id="visual" viewBox="0 0 900 600" width="900" height="600" xmlns="http://www.w3.org/2000/svg" xmlns:xlink="http://www.w3.org/1999/xlink" version="1.1"><path d="M0 67L13.7 71C27.3 75 54.7 83 82 83C109.3 83 136.7 75 163.8 71C191 67 218 67 245.2 62C272.3 57 299.7 47 327 42C354.3 37 381.7 37 409 42C436.3 47 463.7 57 491 64C518.3 71 545.7 75 573 79C600.3 83 627.7 87 654.8 88C682 89 709 87 736.2 81C763.3 75 790.7 65 818 66C845.3 67 872.7 79 886.3 85L900 91L900 0L886.3 0C872.7 0 845.3 0 818 0C790.7 0 763.3 0 736.2 0C709 0 682 0 654.8 0C627.7 0 600.3 0 573 0C545.7 0 518.3 0 491 0C463.7 0 436.3 0 409 0C381.7 0 354.3 0 327 0C299.7 0 272.3 0 245.2 0C218 0 191 0 163.8 0C136.7 0 109.3 0 82 0C54.7 0 27.3 0 13.7 0L0 0Z" fill="#d1d7e2"></path><path d="M0 97L13.7 101C27.3 105 54.7 113 82 116C109.3 119 136.7 117 163.8 116C191 115 218 115 245.2 107C272.3 99 299.7 83 327 74C354.3 65 381.7 63 409 69C436.3 75 463.7 89 491 102C518.3 115 545.7 127 573 135C600.3 143 627.7 147 654.8 145C682 143 709 135 736.2 130C763.3 125 790.7 123 818 123C845.3 123 872.7 125 886.3 126L900 127L900 89L886.3 83C872.7 77 845.3 65 818 64C790.7 63 763.3 73 736.2 79C709 85 682 87 654.8 86C627.7 85 600.3 81 573 77C545.7 73 518.3 69 491 62C463.7 55 436.3 45 409 40C381.7 35 354.3 35 327 40C299.7 45 272.3 55 245.2 60C218 65 191 65 163.8 69C136.7 73 109.3 81 82 81C54.7 81 27.3 73 13.7 69L0 65Z" fill="#dee3eb"></path><path d="M0 343L13.7 321C27.3 299 54.7 255 82 242C109.3 229 136.7 247 163.8 253C191 259 218 253 245.2 242C272.3 231 299.7 215 327 221C354.3 227 381.7 255 409 268C436.3 281 463.7 279 491 272C518.3 265 545.7 253 573 248C600.3 243 627.7 245 654.8 239C682 233 709 219 736.2 227C763.3 235 790.7 265 818 263C845.3 261 872.7 227 886.3 210L900 193L900 125L886.3 124C872.7 123 845.3 121 818 121C790.7 121 763.3 123 736.2 128C709 133 682 141 654.8 143C627.7 145 600.3 141 573 133C545.7 125 518.3 113 491 100C463.7 87 436.3 73 409 67C381.7 61 354.3 63 327 72C299.7 81 272.3 97 245.2 105C218 113 191 113 163.8 114C136.7 115 109.3 117 82 114C54.7 111 27.3 103 13.7 99L0 95Z" fill="#e8ebf1"></path><path d="M0 397L13.7 379C27.3 361 54.7 325 82 318C109.3 311 136.7 333 163.8 344C191 355 218 355 245.2 337C272.3 319 299.7 283 327 284C354.3 285 381.7 323 409 342C436.3 361 463.7 361 491 347C518.3 333 545.7 305 573 295C600.3 285 627.7 293 654.8 290C682 287 709 273 736.2 288C763.3 303 790.7 347 818 349C845.3 351 872.7 311 886.3 291L900 271L900 191L886.3 208C872.7 225 845.3 259 818 261C790.7 263 763.3 233 736.2 225C709 217 682 231 654.8 237C627.7 243 600.3 241 573 246C545.7 251 518.3 263 491 270C463.7 277 436.3 279 409 266C381.7 253 354.3 225 327 219C299.7 213 272.3 229 245.2 240C218 251 191 257 163.8 251C136.7 245 109.3 227 82 240C54.7 253 27.3 297 13.7 319L0 341Z" fill="#edf0f4"></path><path d="M0 433L13.7 419C27.3 405 54.7 377 82 374C109.3 371 136.7 393 163.8 404C191 415 218 415 245.2 395C272.3 375 299.7 335 327 339C354.3 343 381.7 391 409 413C436.3 435 463.7 431 491 415C518.3 399 545.7 371 573 363C600.3 355 627.7 367 654.8 359C682 351 709 323 736.2 335C763.3 347 790.7 399 818 402C845.3 405 872.7 359 886.3 336L900 313L900 269L886.3 289C872.7 309 845.3 349 818 347C790.7 345 763.3 301 736.2 286C709 271 682 285 654.8 288C627.7 291 600.3 283 573 293C545.7 303 518.3 331 491 345C463.7 359 436.3 359 409 340C381.7 321 354.3 283 327 282C299.7 281 272.3 317 245.2 335C218 353 191 353 163.8 342C136.7 331 109.3 309 82 316C54.7 323 27.3 359 13.7 377L0 395Z" fill="#edf0f4"></path><path d="M0 451L13.7 438C27.3 425 54.7 399 82 400C109.3 401 136.7 429 163.8 447C191 465 218 473 245.2 452C272.3 431 299.7 381 327 380C354.3 379 381.7 427 409 449C436.3 471 463.7 467 491 455C518.3 443 545.7 423 573 419C600.3 415 627.7 427 654.8 416C682 405 709 371 736.2 379C763.3 387 790.7 437 818 443C845.3 449 872.7 411 886.3 392L900 373L900 311L886.3 334C872.7 357 845.3 403 818 400C790.7 397 763.3 345 736.2 333C709 321 682 349 654.8 357C627.7 365 600.3 353 573 361C545.7 369 518.3 397 491 413C463.7 429 436.3 433 409 411C381.7 389 354.3 341 327 337C299.7 333 272.3 373 245.2 393C218 413 191 413 163.8 402C136.7 391 109.3 369 82 372C54.7 375 27.3 403 13.7 417L0 431Z" fill="#e8ebf1"></path><path d="M0 547L13.7 552C27.3 557 54.7 567 82 572C109.3 577 136.7 577 163.8 577C191 577 218 577 245.2 572C272.3 567 299.7 557 327 558C354.3 559 381.7 571 409 572C436.3 573 463.7 563 491 558C518.3 553 545.7 553 573 558C600.3 563 627.7 573 654.8 574C682 575 709 567 736.2 564C763.3 561 790.7 563 818 564C845.3 565 872.7 565 886.3 565L900 565L900 371L886.3 390C872.7 409 845.3 447 818 441C790.7 435 763.3 385 736.2 377C709 369 682 403 654.8 414C627.7 425 600.3 413 573 417C545.7 421 518.3 441 491 453C463.7 465 436.3 469 409 447C381.7 425 354.3 377 327 378C299.7 379 272.3 429 245.2 450C218 471 191 463 163.8 445C136.7 427 109.3 399 82 398C54.7 397 27.3 423 13.7 436L0 449Z" fill="#dee3eb"></path><path d="M0 601L13.7 601C27.3 601 54.7 601 82 601C109.3 601 136.7 601 163.8 601C191 601 218 601 245.2 601C272.3 601 299.7 601 327 601C354.3 601 381.7 601 409 601C436.3 601 463.7 601 491 601C518.3 601 545.7 601 573 601C600.3 601 627.7 601 654.8 601C682 601 709 601 736.2 601C763.3 601 790.7 601 818 601C845.3 601 872.7 601 886.3 601L900 601L900 563L886.3 563C872.7 563 845.3 563 818 562C790.7 561 763.3 559 736.2 562C709 565 682 573 654.8 572C627.7 571 600.3 561 573 556C545.7 551 518.3 551 491 556C463.7 561 436.3 571 409 570C381.7 569 354.3 557 327 556C299.7 555 272.3 565 245.2 570C218 575 191 575 163.8 575C136.7 575 109.3 575 82 570C54.7 565 27.3 555 13.7 550L0 545Z" fill="#d1d7e2"></path></svg>