<svg id="visual" viewBox="0 0 900 600" width="900" height="600" xmlns="http://www.w3.org/2000/svg" xmlns:xlink="http://www.w3.org/1999/xlink" version="1.1"><rect x="0" y="0" width="900" height="600" fill="#ffffff"></rect><path d="M0 154L21.5 147.2C43 140.3 86 126.7 128.8 118.2C171.7 109.7 214.3 106.3 257.2 107.3C300 108.3 343 113.7 385.8 119.2C428.7 124.7 471.3 130.3 514.2 146C557 161.7 600 187.3 642.8 183.5C685.7 179.7 728.3 146.3 771.2 144C814 141.7 857 170.3 878.5 184.7L900 199L900 0L878.5 0C857 0 814 0 771.2 0C728.3 0 685.7 0 642.8 0C600 0 557 0 514.2 0C471.3 0 428.7 0 385.8 0C343 0 300 0 257.2 0C214.3 0 171.7 0 128.8 0C86 0 43 0 21.5 0L0 0Z" fill="#e3e7ef" stroke-linecap="round" stroke-linejoin="miter"></path></svg>