<svg id="visual" viewBox="0 0 900 600" width="900" height="600" xmlns="http://www.w3.org/2000/svg" xmlns:xlink="http://www.w3.org/1999/xlink" version="1.1"><rect x="0" y="0" width="900" height="600" fill="#ffffff"></rect><path d="M0 444L21.5 450.8C43 457.7 86 471.3 128.8 479.8C171.7 488.3 214.3 491.7 257.2 490.7C300 489.7 343 484.3 385.8 478.8C428.7 473.3 471.3 467.7 514.2 452C557 436.3 600 410.7 642.8 414.5C685.7 418.3 728.3 451.7 771.2 454C814 456.3 857 427.7 878.5 413.3L900 399L900 601L878.5 601C857 601 814 601 771.2 601C728.3 601 685.7 601 642.8 601C600 601 557 601 514.2 601C471.3 601 428.7 601 385.8 601C343 601 300 601 257.2 601C214.3 601 171.7 601 128.8 601C86 601 43 601 21.5 601L0 601Z" fill="#e3e7ef" stroke-linecap="round" stroke-linejoin="miter"></path></svg>